<svg width="32" height="32" viewBox="0 0 32 32" fill="none" xmlns="http://www.w3.org/2000/svg">
<path d="M18.5788 15.9898L27.4678 7.10086C27.7987 6.75828 27.9818 6.29945 27.9776 5.82318C27.9735 5.34692 27.7825 4.89134 27.4457 4.55456C27.109 4.21777 26.6534 4.02674 26.1772 4.0226C25.7009 4.01847 25.2421 4.20155 24.8996 4.53243L16.0105 13.4213L7.12212 4.53243C6.95356 4.36364 6.75339 4.22974 6.53304 4.13838C6.3127 4.04702 6.07651 4 5.83798 4C5.59945 4 5.36325 4.04702 5.14291 4.13838C4.92257 4.22974 4.72239 4.36364 4.55384 4.53243C4.38506 4.701 4.25117 4.90118 4.15981 5.12154C4.06846 5.3419 4.02144 5.5781 4.02144 5.81665C4.02144 6.05519 4.06846 6.2914 4.15981 6.51175C4.25117 6.73211 4.38506 6.9323 4.55384 7.10086L13.4422 15.9898L4.53349 24.8997C4.27894 25.1535 4.10549 25.4772 4.03512 25.8297C3.96475 26.1822 4.00064 26.5477 4.13823 26.8798C4.27582 27.2119 4.50892 27.4956 4.80797 27.695C5.10702 27.8945 5.45855 28.0006 5.818 28C6.28298 28 6.74795 27.8227 7.1025 27.4681L16.0112 18.5582L24.8996 27.4471C25.0681 27.616 25.2683 27.7499 25.4888 27.8412C25.7092 27.9324 25.9455 27.9792 26.1841 27.9789C26.5432 27.9788 26.8943 27.8723 27.1929 27.6728C27.4915 27.4732 27.7242 27.1896 27.8617 26.8578C27.9991 26.526 28.0352 26.1609 27.9652 25.8086C27.8952 25.4563 27.7224 25.1327 27.4686 24.8786L18.5788 15.9898Z" fill="white"/>
</svg>
