<svg width="48" height="48" viewBox="0 0 48 48" fill="none" xmlns="http://www.w3.org/2000/svg">
<g clip-path="url(#clip0_422_51)">
<path d="M0.527953 47.5421H10.496C10.7513 47.5353 11.0015 47.4679 11.2257 47.3455C11.45 47.2231 11.642 47.0492 11.786 46.8381L39.228 1.74813C39.58 1.16213 39.17 0.458126 38.466 0.458126H29.026C28.7992 0.455017 28.5759 0.513452 28.3797 0.627208C28.1835 0.740964 28.0219 0.905785 27.912 1.10413L0.0599526 46.7221C-0.116047 47.0741 0.117953 47.5421 0.527953 47.5421ZM34.89 46.8381L47.848 26.0221C47.9404 25.8768 47.9918 25.7092 47.9967 25.537C48.0016 25.3649 47.9597 25.1946 47.8757 25.0443C47.7916 24.894 47.6684 24.7692 47.5191 24.6833C47.3699 24.5973 47.2002 24.5534 47.028 24.5561H37.646C37.4715 24.5539 37.2994 24.5958 37.1455 24.678C36.9917 24.7602 36.8611 24.8799 36.766 25.0261L23.456 46.3121C23.104 46.8401 23.514 47.5441 24.16 47.5441H33.718C33.9597 47.5475 34.1976 47.4832 34.4047 47.3584C34.6118 47.2336 34.7799 47.0534 34.89 46.8381Z" fill="white"/>
</g>
<defs>
<clipPath id="clip0_422_51">
<rect width="48" height="48" fill="white"/>
</clipPath>
</defs>
</svg>
