<svg width="32" height="32" viewBox="0 0 32 32" fill="none" xmlns="http://www.w3.org/2000/svg">
<path d="M16 2.66666C16.3536 2.66666 16.6928 2.80713 16.9428 3.05718C17.1929 3.30723 17.3334 3.64637 17.3334 3.99999V5.33332C17.3334 5.68694 17.1929 6.02608 16.9428 6.27613C16.6928 6.52618 16.3536 6.66666 16 6.66666C15.6464 6.66666 15.3073 6.52618 15.0572 6.27613C14.8072 6.02608 14.6667 5.68694 14.6667 5.33332V3.99999C14.6667 3.64637 14.8072 3.30723 15.0572 3.05718C15.3073 2.80713 15.6464 2.66666 16 2.66666ZM25.428 6.57199C25.678 6.82203 25.8184 7.1611 25.8184 7.51466C25.8184 7.86821 25.678 8.20729 25.428 8.45732L24.4854 9.39999C24.3624 9.52734 24.2152 9.62891 24.0526 9.69879C23.8899 9.76867 23.7149 9.80545 23.5379 9.80699C23.3608 9.80853 23.1853 9.77479 23.0214 9.70775C22.8576 9.64071 22.7087 9.54171 22.5835 9.41652C22.4583 9.29133 22.3593 9.14246 22.2923 8.97859C22.2252 8.81473 22.1915 8.63916 22.193 8.46212C22.1946 8.28508 22.2313 8.11012 22.3012 7.94745C22.3711 7.78478 22.4727 7.63765 22.6 7.51466L23.5427 6.57199C23.7927 6.32203 24.1318 6.18161 24.4854 6.18161C24.8389 6.18161 25.178 6.32203 25.428 6.57199ZM6.57202 6.57199C6.82206 6.32203 7.16113 6.18161 7.51469 6.18161C7.86824 6.18161 8.20732 6.32203 8.45735 6.57199L9.40002 7.51466C9.6429 7.76613 9.77729 8.10293 9.77425 8.45252C9.77121 8.80212 9.63099 9.13654 9.38378 9.38375C9.13657 9.63096 8.80215 9.77118 8.45256 9.77422C8.10296 9.77726 7.76616 9.64287 7.51469 9.39999L6.57202 8.45732C6.32206 8.20729 6.18164 7.86821 6.18164 7.51466C6.18164 7.1611 6.32206 6.82203 6.57202 6.57199ZM16 10.6667C14.5855 10.6667 13.229 11.2286 12.2288 12.2288C11.2286 13.2289 10.6667 14.5855 10.6667 16C10.6667 17.4145 11.2286 18.771 12.2288 19.7712C13.229 20.7714 14.5855 21.3333 16 21.3333C17.4145 21.3333 18.7711 20.7714 19.7713 19.7712C20.7715 18.771 21.3334 17.4145 21.3334 16C21.3334 14.5855 20.7715 13.2289 19.7713 12.2288C18.7711 11.2286 17.4145 10.6667 16 10.6667ZM8.00002 16C8.00002 13.8783 8.84288 11.8434 10.3432 10.3431C11.8435 8.84284 13.8783 7.99999 16 7.99999C18.1218 7.99999 20.1566 8.84284 21.6569 10.3431C23.1572 11.8434 24 13.8783 24 16C24 18.1217 23.1572 20.1566 21.6569 21.6568C20.1566 23.1571 18.1218 24 16 24C13.8783 24 11.8435 23.1571 10.3432 21.6568C8.84288 20.1566 8.00002 18.1217 8.00002 16ZM2.66669 16C2.66669 15.6464 2.80716 15.3072 3.05721 15.0572C3.30726 14.8071 3.6464 14.6667 4.00002 14.6667H5.33335C5.68698 14.6667 6.02611 14.8071 6.27616 15.0572C6.52621 15.3072 6.66669 15.6464 6.66669 16C6.66669 16.3536 6.52621 16.6927 6.27616 16.9428C6.02611 17.1928 5.68698 17.3333 5.33335 17.3333H4.00002C3.6464 17.3333 3.30726 17.1928 3.05721 16.9428C2.80716 16.6927 2.66669 16.3536 2.66669 16ZM25.3334 16C25.3334 15.6464 25.4738 15.3072 25.7239 15.0572C25.9739 14.8071 26.3131 14.6667 26.6667 14.6667H28C28.3536 14.6667 28.6928 14.8071 28.9428 15.0572C29.1929 15.3072 29.3334 15.6464 29.3334 16C29.3334 16.3536 29.1929 16.6927 28.9428 16.9428C28.6928 17.1928 28.3536 17.3333 28 17.3333H26.6667C26.3131 17.3333 25.9739 17.1928 25.7239 16.9428C25.4738 16.6927 25.3334 16.3536 25.3334 16ZM7.51469 22.6C7.76616 22.3571 8.10296 22.2227 8.45256 22.2258C8.80215 22.2288 9.13657 22.369 9.38378 22.6162C9.63099 22.8634 9.77121 23.1979 9.77425 23.5475C9.77729 23.897 9.6429 24.2339 9.40002 24.4853L8.45735 25.428C8.20588 25.6709 7.86908 25.8053 7.51948 25.8022C7.16989 25.7992 6.83547 25.659 6.58826 25.4117C6.34105 25.1645 6.20083 24.8301 6.19779 24.4805C6.19475 24.1309 6.32914 23.7941 6.57202 23.5427L7.51469 22.6ZM22.6 24.4853C22.3571 24.2339 22.2227 23.897 22.2258 23.5475C22.2288 23.1979 22.369 22.8634 22.6163 22.6162C22.8635 22.369 23.1979 22.2288 23.5475 22.2258C23.8971 22.2227 24.2339 22.3571 24.4854 22.6L25.428 23.5427C25.6709 23.7941 25.8053 24.1309 25.8022 24.4805C25.7992 24.8301 25.659 25.1645 25.4118 25.4117C25.1646 25.659 24.8301 25.7992 24.4806 25.8022C24.131 25.8053 23.7942 25.6709 23.5427 25.428L22.6 24.4853ZM16 25.3333C16.3536 25.3333 16.6928 25.4738 16.9428 25.7238C17.1929 25.9739 17.3334 26.313 17.3334 26.6667V28C17.3334 28.3536 17.1929 28.6927 16.9428 28.9428C16.6928 29.1928 16.3536 29.3333 16 29.3333C15.6464 29.3333 15.3073 29.1928 15.0572 28.9428C14.8072 28.6927 14.6667 28.3536 14.6667 28V26.6667C14.6667 26.313 14.8072 25.9739 15.0572 25.7238C15.3073 25.4738 15.6464 25.3333 16 25.3333Z" fill="white"/>
</svg>
