<svg width="48" height="48" viewBox="0 0 48 48" fill="none" xmlns="http://www.w3.org/2000/svg">
<g clip-path="url(#clip0_422_154)">
<path d="M36.75 0H11.25C5.0368 0 0 5.0368 0 11.25V36.75C0 42.9632 5.0368 48 11.25 48H36.75C42.9632 48 48 42.9632 48 36.75V11.25C48 5.0368 42.9632 0 36.75 0Z" fill="#242938"/>
<mask id="mask0_422_154" style="mask-type:luminance" maskUnits="userSpaceOnUse" x="5" y="5" width="38" height="38">
<path d="M5.25 5.25H42.75V42.75H5.25V5.25Z" fill="white"/>
</mask>
<g mask="url(#mask0_422_154)">
<path d="M14.8125 32.2031H39.6292V25.3359L34.9148 22.6323L34.1016 22.2808L14.8125 22.4131V32.2031Z" fill="white"/>
<path d="M31.0453 31.2911C31.2761 30.5002 31.1884 29.7748 30.804 29.2357C30.4524 28.7411 29.8583 28.4551 29.1446 28.4223L15.6152 28.2466C15.5741 28.2467 15.5336 28.2367 15.4972 28.2175C15.4609 28.1983 15.4298 28.1704 15.4067 28.1364C15.3621 28.0708 15.3516 27.9841 15.3739 27.8951C15.4183 27.7627 15.5496 27.6643 15.6926 27.6536L29.3426 27.4779C30.9598 27.4004 32.7176 26.0926 33.3317 24.4895L34.1121 22.4564C34.1465 22.3729 34.1547 22.2809 34.1355 22.1926C33.2567 18.2143 29.7058 15.2471 25.4636 15.2471C21.5496 15.2471 18.2333 17.7748 17.0449 21.2821C16.2392 20.6842 15.2405 20.4061 14.2418 20.5018C12.3621 20.6893 10.8433 22.1939 10.6699 24.0736C10.6243 24.541 10.6576 25.0128 10.7683 25.4692C9.28962 25.5093 7.88509 26.1255 6.85422 27.1864C5.82335 28.2473 5.2477 29.6689 5.25001 31.1482C5.25001 31.4223 5.27344 31.6989 5.30513 31.9721C5.32857 32.1044 5.43751 32.2029 5.56876 32.2029H30.5391C30.6109 32.2016 30.6805 32.1775 30.7378 32.1341C30.7951 32.0907 30.8371 32.0302 30.8578 31.9614L31.0453 31.2911Z" fill="#F38020"/>
<path d="M35.3531 22.5972L34.9781 22.6088C34.8902 22.6088 34.8141 22.6744 34.7788 22.7612L34.2516 24.5963C34.0208 25.3874 34.1085 26.1128 34.4929 26.6519C34.8444 27.1463 35.4386 27.4322 36.1523 27.465L39.0317 27.6409C39.1194 27.6409 39.1958 27.6854 39.2402 27.751C39.2848 27.8166 39.2953 27.915 39.273 27.9925C39.2286 28.1249 39.0973 28.2233 38.9543 28.2338L35.9543 28.4097C34.3277 28.4869 32.5793 29.7947 31.9652 31.3979L31.7449 31.9581C31.7004 32.0682 31.7777 32.1784 31.8973 32.1784H42.2063C42.2659 32.1792 42.3241 32.1601 42.3718 32.1243C42.4195 32.0884 42.454 32.0378 42.4699 31.9802C42.6526 31.3302 42.7469 30.6586 42.75 29.9834C42.7444 28.0244 41.9629 26.1474 40.5766 24.7633C39.1903 23.3793 37.3121 22.6008 35.3531 22.5983" fill="#FAAE40"/>
</g>
</g>
<defs>
<clipPath id="clip0_422_154">
<rect width="48" height="48" fill="white"/>
</clipPath>
</defs>
</svg>
