<svg width="48" height="48" viewBox="0 0 48 48" fill="none" xmlns="http://www.w3.org/2000/svg">
<g clip-path="url(#clip0_654_6)">
<path d="M36.75 0H11.25C5.0368 0 0 5.0368 0 11.25V36.75C0 42.9632 5.0368 48 11.25 48H36.75C42.9632 48 48 42.9632 48 36.75V11.25C48 5.0368 42.9632 0 36.75 0Z" fill="#092E20"/>
<path d="M21.1292 9.5625H26.4945V34.3969C23.7422 34.9194 21.7215 35.1285 19.5268 35.1285C12.9767 35.1283 9.5625 32.1673 9.5625 26.4883C9.5625 21.0184 13.1859 17.4651 18.795 17.4651C19.6659 17.4651 20.3278 17.5344 21.1292 17.7435V9.5625ZM21.1292 22.0633C20.5022 21.8546 19.9796 21.7849 19.3177 21.7849C16.6003 21.7849 15.0322 23.4572 15.0322 26.3835C15.0322 29.2406 16.5306 30.8083 19.2829 30.8083C19.8748 30.8083 20.3629 30.7734 21.1292 30.6692V22.0633Z" fill="white"/>
<path d="M35.0299 17.8479V30.2852C35.0299 34.5707 34.7164 36.6261 33.7757 38.403C32.9046 40.1104 31.7548 41.1902 29.3857 42.3748L24.4037 40.0056C26.7727 38.8909 27.9225 37.9157 28.6539 36.417C29.4206 34.8842 29.6648 33.1073 29.6648 28.4389V17.8478L35.0299 17.8479ZM29.6648 9.59082H35.0299V15.0954H29.6648V9.59082Z" fill="white"/>
</g>
<defs>
<clipPath id="clip0_654_6">
<rect width="48" height="48" fill="white"/>
</clipPath>
</defs>
</svg>
