<svg width="48" height="48" viewBox="0 0 48 48" fill="none" xmlns="http://www.w3.org/2000/svg">
<g clip-path="url(#clip0_422_119)">
<path d="M36.75 0H11.25C5.0368 0 0 5.0368 0 11.25V36.75C0 42.9632 5.0368 48 11.25 48H36.75C42.9632 48 48 42.9632 48 36.75V11.25C48 5.0368 42.9632 0 36.75 0Z" fill="#2396ED"/>
<path d="M26.4726 22.8981H30.357V19.3836H26.4726V22.8981ZM21.8484 22.8981H25.7327V19.3836H21.8484V22.8981ZM17.3166 22.8981H21.201V19.3836H17.3166V22.8981ZM12.7847 22.8981H16.5769V19.3836H12.7849L12.7847 22.8981ZM8.16056 22.8981H12.045V19.3836H8.16056V22.8981ZM12.7849 18.6437H16.5767V15.1294H12.7849V18.6437ZM17.3167 18.6437H21.201V15.1294H17.3166L17.3167 18.6437ZM21.8484 18.6437H25.7327V15.1294H21.8484V18.6437ZM21.8484 14.3893H25.7327V10.875H21.8484V14.3893ZM42.75 21.3261C42.75 21.3261 41.0852 19.7537 37.6633 20.3087C37.2934 17.6265 34.4263 16.0543 34.4263 16.0543C34.4263 16.0543 31.7443 19.2913 33.6864 22.8983C33.1316 23.1757 32.2067 23.5457 30.8194 23.5457H5.38612C4.92356 25.3029 4.92356 36.9559 17.6865 36.9559C26.8425 36.9559 33.6864 32.7017 36.9234 24.9328C41.7326 25.3028 42.75 21.3261 42.75 21.3261Z" fill="white"/>
</g>
<defs>
<clipPath id="clip0_422_119">
<rect width="48" height="48" fill="white"/>
</clipPath>
</defs>
</svg>
