<svg width="48" height="48" viewBox="0 0 48 48" fill="none" xmlns="http://www.w3.org/2000/svg">
<g clip-path="url(#clip0_422_77)">
<path d="M36.75 0H11.25C5.0368 0 0 5.0368 0 11.25V36.75C0 42.9632 5.0368 48 11.25 48H36.75C42.9632 48 48 42.9632 48 36.75V11.25C48 5.0368 42.9632 0 36.75 0Z" fill="#00B4E0"/>
<path d="M7.59375 21.2314C7.51875 21.2314 7.5 21.1939 7.5375 21.1377L7.93125 20.6314C7.96875 20.5752 8.0625 20.5377 8.1375 20.5377H14.8312C14.9062 20.5377 14.925 20.5939 14.8875 20.6502L14.5687 21.1377C14.5312 21.1939 14.4375 21.2502 14.3812 21.2502L7.59375 21.2314ZM4.7625 22.9564C4.6875 22.9564 4.66875 22.9189 4.70625 22.8627L5.1 22.3564C5.1375 22.3002 5.23125 22.2627 5.30625 22.2627H13.8563C13.9313 22.2627 13.9688 22.3189 13.95 22.3752L13.8 22.8252C13.7812 22.9002 13.7062 22.9377 13.6312 22.9377L4.7625 22.9564ZM9.3 24.6814C9.225 24.6814 9.20625 24.6252 9.24375 24.5689L9.50625 24.1002C9.54375 24.0439 9.61875 23.9877 9.69375 23.9877H13.4437C13.5187 23.9877 13.5563 24.0439 13.5563 24.1189L13.5187 24.5689C13.5187 24.6439 13.4438 24.7002 13.3875 24.7002L9.3 24.6814ZM28.7625 20.8939C27.5812 21.1939 26.775 21.4189 25.6125 21.7189C25.3313 21.7939 25.3125 21.8127 25.0687 21.5314C24.7875 21.2127 24.5812 21.0064 24.1875 20.8189C23.0063 20.2377 21.8625 20.4064 20.7938 21.1002C19.5188 21.9252 18.8625 23.1439 18.8812 24.6627C18.9 26.1627 19.9312 27.4002 21.4125 27.6064C22.6875 27.7752 23.7562 27.3252 24.6 26.3689C24.7687 26.1627 24.9187 25.9377 25.1062 25.6752H21.4875C21.0938 25.6752 21 25.4314 21.1312 25.1127C21.375 24.5314 21.825 23.5564 22.0875 23.0689C22.1438 22.9564 22.275 22.7689 22.5563 22.7689H29.3812C29.3438 23.2752 29.3438 23.7814 29.2688 24.2877C29.0625 25.6377 28.5562 26.8752 27.7312 27.9627C26.3812 29.7439 24.6187 30.8502 22.3875 31.1502C20.55 31.3939 18.8438 31.0377 17.3438 29.9127C15.9563 28.8627 15.1688 27.4752 14.9625 25.7502C14.7188 23.7064 15.3188 21.8689 16.5563 20.2564C17.8875 18.5127 19.65 17.4064 21.8063 17.0127C23.5688 16.6939 25.2563 16.9002 26.775 17.9314C27.7688 18.5877 28.4812 19.4877 28.95 20.5752C29.0625 20.7439 28.9875 20.8377 28.7625 20.8939Z" fill="white"/>
<path d="M34.9687 31.2624C33.2625 31.2249 31.7062 30.7374 30.3937 29.6124C29.2875 28.6562 28.5937 27.4374 28.3687 25.9937C28.0312 23.8749 28.6125 21.9999 29.8875 20.3312C31.2562 18.5312 32.9062 17.5937 35.1375 17.1999C37.05 16.8624 38.85 17.0499 40.4812 18.1562C41.9625 19.1687 42.8812 20.5374 43.125 22.3374C43.4437 24.8687 42.7125 26.9312 40.9687 28.6937C39.7312 29.9499 38.2125 30.7374 36.4687 31.0937C35.9625 31.1874 35.4562 31.2062 34.9687 31.2624ZM39.4312 23.6874C39.4125 23.4437 39.4125 23.2562 39.375 23.0687C39.0375 21.2124 37.3312 20.1624 35.55 20.5749C33.8062 20.9687 32.6812 22.0749 32.2687 23.8374C31.9312 25.2999 32.6437 26.7812 33.9937 27.3812C35.025 27.8312 36.0562 27.7749 37.05 27.2687C38.5312 26.4999 39.3375 25.2999 39.4312 23.6874Z" fill="white"/>
</g>
<defs>
<clipPath id="clip0_422_77">
<rect width="48" height="48" fill="white"/>
</clipPath>
</defs>
</svg>
