<svg width="48" height="48" viewBox="0 0 48 48" fill="none" xmlns="http://www.w3.org/2000/svg">
<g clip-path="url(#clip0_654_11)">
<path d="M36.75 0H11.25C5.0368 0 0 5.0368 0 11.25V36.75C0 42.9632 5.0368 48 11.25 48H36.75C42.9632 48 48 42.9632 48 36.75V11.25C48 5.0368 42.9632 0 36.75 0Z" fill="#F4F2ED"/>
<path fill-rule="evenodd" clip-rule="evenodd" d="M40.4711 14.6837C40.4831 14.7293 40.4895 14.7764 40.4895 14.8238V22.1736C40.4895 22.2679 40.4649 22.3606 40.4184 22.4421C40.372 22.5235 40.305 22.5912 40.224 22.6384L34.1404 26.1901V33.2297C34.1406 33.3235 34.1164 33.4158 34.0701 33.4973C34.0237 33.5789 33.9569 33.6469 33.8762 33.6947L21.1772 41.1076C21.1481 41.1242 21.1164 41.1349 21.0848 41.1464C21.0728 41.1505 21.0617 41.1578 21.0491 41.1612C20.9604 41.1848 20.867 41.1848 20.7782 41.1612C20.7638 41.157 20.7504 41.149 20.7366 41.1437C20.7075 41.1331 20.6771 41.1237 20.6494 41.1076L7.953 33.6947C7.87216 33.6475 7.80517 33.5798 7.75875 33.4984C7.71207 33.4166 7.68751 33.324 7.6875 33.2297V11.1803C7.6875 11.1319 7.69406 11.0851 7.70606 11.0397C7.70981 11.0241 7.71919 11.0101 7.72444 10.9947C7.73437 10.9666 7.74356 10.9379 7.75819 10.9116C7.76812 10.8942 7.78256 10.8801 7.79456 10.8642C7.80956 10.8426 7.82362 10.8205 7.84144 10.8017C7.85644 10.7864 7.8765 10.7749 7.89356 10.7616C7.91269 10.7455 7.92994 10.728 7.95169 10.7153H7.95244L14.3006 7.00899C14.3808 6.96217 14.472 6.9375 14.5649 6.9375C14.6578 6.9375 14.749 6.96217 14.8292 7.00899L21.1778 10.7153H21.1791C21.2001 10.7288 21.2181 10.7455 21.2372 10.7609C21.2543 10.7744 21.2734 10.7864 21.2886 10.8012C21.3071 10.8205 21.3204 10.8426 21.3362 10.8642C21.3474 10.8801 21.3626 10.8942 21.3718 10.9116C21.387 10.9384 21.3956 10.9666 21.4063 10.9947C21.4116 11.0101 21.4208 11.0241 21.4247 11.0402C21.4369 11.086 21.4431 11.1331 21.4433 11.1803V24.9522L26.7334 21.8635V14.8229C26.7334 14.776 26.7399 14.7286 26.7519 14.6837C26.7566 14.6676 26.7651 14.6536 26.7705 14.6382C26.781 14.6101 26.7902 14.5812 26.8048 14.5551C26.8148 14.5377 26.8292 14.5236 26.8404 14.5075C26.8564 14.4861 26.8695 14.464 26.8881 14.4452C26.9033 14.4299 26.9224 14.4184 26.9396 14.4049C26.9593 14.389 26.9766 14.3716 26.9978 14.3588H26.9985L33.3476 10.6523C33.4278 10.6054 33.519 10.5807 33.6118 10.5807C33.7047 10.5807 33.7959 10.6054 33.876 10.6523L40.2246 14.3588C40.2471 14.3723 40.2641 14.3888 40.284 14.4044C40.3005 14.4177 40.3196 14.4299 40.3348 14.4445C40.3534 14.464 40.3665 14.4861 40.3824 14.5075C40.3943 14.5236 40.4089 14.5375 40.4181 14.5551C40.4333 14.5814 40.4419 14.6101 40.4524 14.6382C40.4584 14.6536 40.4672 14.6676 40.4711 14.6837ZM39.4311 21.8635V15.7516L37.2094 17.0483L34.1402 18.8402V24.9522L39.4316 21.8635H39.4311ZM33.0825 32.9196V26.8037L30.0636 28.5522L21.4425 33.5414V39.7148L33.0825 32.9196ZM8.74575 12.1081V32.9196L20.3844 39.7142V33.5419L14.3042 30.0526L14.3023 30.0512L14.2995 30.0499C14.2791 30.0379 14.262 30.0205 14.2427 30.0057C14.2262 29.9924 14.2071 29.9817 14.1926 29.9669L14.1913 29.965C14.1741 29.9481 14.1621 29.9275 14.1476 29.9086C14.1345 29.8906 14.1186 29.8752 14.1081 29.8564L14.1073 29.8544C14.0953 29.8343 14.088 29.8101 14.0796 29.7874C14.0709 29.7674 14.0597 29.7486 14.0544 29.7271V29.7263C14.0479 29.701 14.0466 29.6742 14.0438 29.6479C14.0411 29.6279 14.0359 29.6078 14.0359 29.5877V15.1969L10.9674 13.4042L8.74575 12.1086V12.1081ZM14.5658 8.09274L9.27637 11.1805L14.5644 14.2679L19.8533 11.1797L14.5644 8.09292L14.5658 8.09274ZM17.3166 27.361L20.3852 25.5698V12.1081L18.1633 13.405L15.0943 15.1967V28.6587L17.3166 27.361ZM33.612 11.7362L28.323 14.8238L33.612 17.9112L38.9001 14.8231L33.612 11.7362ZM33.0827 18.8402L30.0135 17.0483L27.792 15.7516V21.8635L30.8604 23.6547L33.0827 24.9522V18.8402ZM20.913 32.6136L28.6704 28.1226L32.5483 25.8786L27.2634 22.7931L21.1785 26.3455L15.6326 29.583L20.913 32.6136Z" fill="#FF2D20"/>
</g>
<defs>
<clipPath id="clip0_654_11">
<rect width="48" height="48" fill="white"/>
</clipPath>
</defs>
</svg>
