<svg width="48" height="48" viewBox="0 0 48 48" fill="none" xmlns="http://www.w3.org/2000/svg">
<g clip-path="url(#clip0_422_192)">
<path d="M36.75 0H11.25C5.0368 0 0 5.0368 0 11.25V36.75C0 42.9632 5.0368 48 11.25 48H36.75C42.9632 48 48 42.9632 48 36.75V11.25C48 5.0368 42.9632 0 36.75 0Z" fill="#242938"/>
<path d="M16.1156 37.4862L20.7149 40.04H27.6704L34.1771 35.1547L37.0938 27.4936L30.3628 19.3886L28.4557 14.8364L19.1444 15.1694L19.2566 17.7232L17.4616 21.0539L14.657 26.4944L14.0962 31.0466L16.1156 37.4862Z" fill="#ECEFF1"/>
<path d="M35.0745 21.498C33.2795 18.9443 31.8211 17.3899 31.0359 14.1701C30.2507 10.9502 31.2603 11.8386 30.5872 9.06265C30.2507 7.61946 29.6897 6.62009 29.1288 5.8429C28.4557 5.06571 27.6705 4.62152 27.2216 4.51052C26.2121 3.95552 23.8562 3.06715 20.9394 4.62152C17.9103 6.1759 18.2469 9.50683 18.8079 16.2797C18.8079 16.7237 18.6956 17.2791 18.4713 17.7231C18.0227 18.7225 17.2372 19.6105 16.5643 20.3878C15.7788 21.498 14.9936 22.6084 14.4328 23.8296C13.0865 26.3833 11.8524 29.6031 12.189 30.8245C12.75 30.7135 19.8176 41.3723 19.8176 41.5943C20.2663 41.4833 22.1733 41.4833 23.8562 41.4833C26.2121 41.3723 27.5582 41.2613 29.4654 41.7053C29.4654 41.3723 29.3531 41.0391 29.3531 40.7061C29.3531 40.0399 29.4654 39.4847 29.5775 38.7075C29.6897 38.1523 29.802 37.5973 29.9141 36.9311C28.7923 37.9303 26.7729 39.0407 24.8658 39.3737C23.183 39.7067 20.3784 39.1517 19.0322 37.4861C19.1445 37.4861 19.3687 37.4861 19.481 37.3751C19.8176 37.2641 20.1542 37.1531 20.2663 36.9311C20.6028 36.376 20.3784 35.8208 20.1542 35.4878C19.9297 35.1546 18.2469 33.9332 17.4617 33.2672C16.6764 32.601 16.2277 32.2678 15.7788 31.8238L14.8815 30.9355C14.657 30.7135 14.5449 30.4915 14.4328 30.3803C14.2083 29.8253 14.0962 29.1591 14.2083 28.2709C14.3205 27.0495 14.7692 26.0501 15.3302 24.94C15.5546 24.4958 16.1154 23.6076 16.1154 23.6076C16.1154 23.6076 14.2083 28.2709 15.218 29.7143C15.218 29.7143 15.3302 28.2709 15.7788 26.8275C16.1154 25.8281 16.6764 24.3848 17.3495 23.6076C18.0227 22.8304 19.7053 19.9436 19.8176 18.1671C19.8176 17.3899 19.9297 16.6127 19.9297 16.0577C19.481 15.6133 27.3339 14.5033 27.7826 15.7245C27.8947 16.1687 29.4654 20.1656 30.3628 22.2752C30.8115 23.2746 31.3725 24.1628 31.709 25.273C32.0456 26.4943 32.2698 28.1597 32.2698 29.8253C32.2698 30.1583 32.2698 30.7135 32.1577 31.2687C32.3822 31.2687 36.7573 26.6053 31.5969 22.7194C31.5969 22.7194 34.7379 24.1628 34.8502 27.0495C34.9623 29.3811 33.9527 31.2687 33.7284 31.6017C33.8405 31.6017 36.0842 32.601 36.1963 32.601C36.6452 32.601 37.5425 32.2678 37.5425 32.2678C37.6548 31.9348 37.9912 31.0465 37.9912 30.7135C38.7767 28.1597 36.8694 24.0518 35.0745 21.498Z" fill="#263238"/>
<path d="M20.8271 14.17C21.6326 14.17 22.2855 13.1757 22.2855 11.9494C22.2855 10.723 21.6326 9.72886 20.8271 9.72886C20.0218 9.72886 19.3688 10.723 19.3688 11.9494C19.3688 13.1757 20.0218 14.17 20.8271 14.17ZM25.8754 14.392C26.9288 14.392 27.7826 13.2486 27.7826 11.8382C27.7826 10.428 26.9288 9.28467 25.8754 9.28467C24.8222 9.28467 23.9683 10.428 23.9683 11.8384C23.9683 13.2486 24.8222 14.392 25.8754 14.392Z" fill="#ECEFF1"/>
<path d="M21.642 12.1016C21.5488 11.3717 21.1243 10.8234 20.694 10.8772C20.2638 10.931 19.9905 11.5665 20.0838 12.2966C20.177 13.0265 20.6013 13.5748 21.0317 13.521C21.462 13.467 21.7352 12.8315 21.642 12.1016ZM25.7632 13.7261C26.3829 13.7261 26.885 13.08 26.885 12.2827C26.885 11.4857 26.3829 10.8394 25.7632 10.8394C25.1437 10.8394 24.6414 11.4857 24.6414 12.2827C24.6414 13.08 25.1437 13.7261 25.7632 13.7261Z" fill="#212121"/>
<path d="M40.6837 36.7088C40.235 36.4868 39.4496 36.1536 38.7765 35.1544C38.4401 34.5992 38.5522 33.0448 37.9912 32.3786C37.6547 31.9346 37.206 32.1566 37.0939 32.1566C36.0842 32.3786 33.7282 33.933 32.1577 32.1566C31.9333 31.9346 31.5967 31.6014 31.0359 31.6014C30.4749 31.6014 30.2507 31.8234 30.0262 32.2676C29.8018 32.7118 29.8018 33.0448 29.8018 34.1552C29.8018 35.0434 29.8018 36.0426 29.6897 36.8198C29.4652 38.7073 29.1289 39.8177 29.1289 40.9279C29.1289 42.1493 29.4652 42.9264 29.9141 43.2594C30.2507 43.5926 30.8115 43.8146 32.0456 43.8146C33.2795 43.8146 34.0648 43.3706 34.8502 42.5933C35.411 42.0382 35.8597 41.8161 37.4304 40.7059C38.6644 39.9287 40.5716 38.9293 40.908 38.5963C41.1324 38.3743 41.469 38.2631 41.469 37.5969C41.469 37.0419 41.0203 36.8198 40.6837 36.7088ZM18.1348 37.0419C17.013 35.2654 16.9007 34.9324 16.1154 33.822C15.4423 32.7118 13.9839 30.6022 13.0865 30.6022C12.4134 30.6022 12.0769 30.9353 11.6282 31.3794C11.1793 31.8234 10.7306 32.8228 9.94536 33.378C9.27224 33.933 7.36517 33.822 6.91649 34.4882C6.46761 35.1544 7.36517 36.1537 7.36517 37.8191C7.36517 38.4853 6.80418 38.9293 6.69205 39.3735C6.57993 39.9287 6.46761 40.2617 6.69205 40.7059C7.14074 41.3721 7.70174 41.5941 11.5159 42.3713C13.5352 42.8154 15.4423 43.9256 16.6764 44.0368C17.9104 44.1478 20.0419 44.0368 20.0419 41.0389C20.1542 39.2625 19.1445 38.8183 18.1348 37.0419ZM20.2663 16.9457C19.5932 16.5015 19.0322 16.0573 19.0322 15.3913C19.0322 14.7251 19.481 14.5029 20.1542 13.9479C20.2663 13.8368 21.5002 12.7266 22.7344 12.7266C23.9683 12.7266 25.4267 13.5038 25.9877 13.7259C26.9974 13.9478 28.0069 14.1699 27.8947 14.9471C27.7826 16.0573 27.6705 16.2795 26.5485 16.8347C25.7632 17.0567 24.3049 18.2781 23.2952 18.2781C22.8465 18.2781 22.1734 18.2781 21.7247 18.1669C21.3881 18.0559 20.8271 17.5007 20.2663 16.9457Z" fill="#FFC107"/>
<path d="M20.0419 16.0575C20.2663 16.2797 20.6029 16.5018 20.9395 16.6127C21.1637 16.7237 21.5003 16.8348 21.5003 16.8348H22.51C23.071 16.8348 23.8562 16.6127 24.6415 16.1687C25.4267 15.8355 25.539 15.6135 26.0998 15.3915C26.6608 15.0583 27.2217 14.7253 26.9974 14.6143C26.773 14.5031 26.5485 14.6143 25.7633 15.0583C25.0902 15.5025 24.5293 15.7245 23.8562 16.0577C23.5197 16.1687 23.071 16.3907 22.7344 16.3907H21.7247C21.3882 16.3907 21.1637 16.2797 20.8272 16.1687C20.6029 16.0575 20.4906 15.9465 20.3785 15.9465C20.1542 15.8355 19.7053 15.3915 19.4811 15.2803C19.4811 15.2803 19.2567 15.2803 19.3688 15.3915L20.0419 16.0575ZM23.4075 13.6149C23.5197 13.8369 23.7441 13.8369 23.8562 13.9479C23.9683 14.0591 24.0805 14.0591 24.0805 14.0591C24.1928 13.9479 24.0805 13.7259 23.9683 13.7259C23.9683 13.5039 23.4075 13.5039 23.4075 13.6149ZM21.6126 13.8369C21.6126 13.9481 21.8368 14.0591 21.8368 13.9481C21.9492 13.8369 22.0613 13.7259 22.1734 13.7259C22.3978 13.6149 22.2855 13.5039 21.9492 13.5039C21.7247 13.6149 21.7247 13.7259 21.6126 13.8369Z" fill="#634703"/>
<path d="M32.4943 33.4891V33.8221C32.7188 34.2663 33.2796 34.3773 33.7283 34.3773C34.4014 34.3773 35.0745 33.9331 35.4111 33.4891C35.4111 33.3781 35.5232 33.2669 35.6355 33.1559C35.8598 32.8229 35.9721 32.6009 36.0842 32.4897C36.0842 32.4897 35.9721 32.3787 35.9721 32.2677C35.8598 32.0457 35.5232 31.8235 35.0745 31.7125C34.738 31.6015 34.1772 31.4905 33.9527 31.4905C32.943 31.3795 32.3822 31.7125 32.0457 32.0457C32.0457 32.0457 32.1578 32.0457 32.1578 32.1567C32.3822 32.3787 32.4943 32.6009 32.4943 32.9339C32.6065 33.1559 32.4943 33.2669 32.4943 33.4891Z" fill="#455A64"/>
</g>
<defs>
<clipPath id="clip0_422_192">
<rect width="48" height="48" fill="white"/>
</clipPath>
</defs>
</svg>
