<svg width="48" height="48" viewBox="0 0 48 48" fill="none" xmlns="http://www.w3.org/2000/svg">
<g clip-path="url(#clip0_654_2)">
<path d="M36.75 0H11.25C5.0368 0 0 5.0368 0 11.25V36.75C0 42.9632 5.0368 48 11.25 48H36.75C42.9632 48 48 42.9632 48 36.75V11.25C48 5.0368 42.9632 0 36.75 0Z" fill="#242938"/>
<path d="M22.7721 5.25989C22.6914 5.2672 22.4347 5.29289 22.2037 5.31108C16.8776 5.79127 11.8886 8.66527 8.72868 13.0824C6.96937 15.5385 5.84381 18.3243 5.41875 21.2754C5.26856 22.3055 5.25018 22.6098 5.25018 24.0063C5.25018 25.403 5.26856 25.7073 5.41893 26.7373C6.43781 33.779 11.4489 39.6956 18.2451 41.8876C19.4621 42.2799 20.745 42.5475 22.2039 42.7087C22.7722 42.771 25.2281 42.771 25.7964 42.7087C28.3147 42.4301 30.4481 41.807 32.5522 40.7328C32.8747 40.568 32.9372 40.524 32.8931 40.4874C32.8639 40.4653 31.4891 38.6214 29.8397 36.3928L26.8412 32.3422L23.0837 26.7813C21.0163 23.7241 19.3155 21.224 19.3007 21.224C19.2861 21.2205 19.2714 23.6911 19.2641 26.708C19.2531 31.9903 19.2495 32.2029 19.1835 32.3274C19.0882 32.507 19.0149 32.5803 18.8608 32.6611C18.7436 32.7196 18.6409 32.7307 18.0874 32.7307H17.4532L17.2845 32.6244C17.18 32.5589 17.0952 32.4665 17.0389 32.3568L16.962 32.1918L16.9695 24.8422L16.9804 17.4888L17.094 17.3458C17.1527 17.2689 17.2774 17.1699 17.3653 17.1223C17.5155 17.049 17.5742 17.0416 18.2083 17.0416C18.9562 17.0416 19.0807 17.0709 19.2752 17.2835C19.3301 17.3422 21.3645 20.4067 23.7986 24.098C26.2629 27.8343 28.7286 31.5696 31.1959 35.304L34.1651 39.8019L34.3155 39.7029C35.646 38.8378 37.0537 37.6061 38.1681 36.323C40.5397 33.5994 42.0684 30.2784 42.5816 26.7373C42.7318 25.7073 42.7502 25.403 42.7502 24.0063C42.7502 22.6098 42.7318 22.3055 42.5816 21.2754C41.5626 14.2336 36.5514 8.31727 29.7553 6.1252C28.5566 5.73652 27.2811 5.46895 25.8514 5.3077C25.4994 5.27095 23.0764 5.23083 22.7722 5.26008M30.4481 16.6018C30.624 16.6897 30.7671 16.8583 30.8184 17.0341C30.8477 17.1296 30.855 19.1677 30.8477 23.7607L30.8366 30.3517L29.6747 28.5701L28.509 26.7886V21.9976C28.509 18.9001 28.5236 17.1588 28.5456 17.0745C28.6042 16.8693 28.7325 16.7081 28.9086 16.6126C29.0587 16.5358 29.1139 16.5283 29.6893 16.5283C30.2319 16.5283 30.3272 16.5358 30.4481 16.6018Z" fill="white"/>
</g>
<defs>
<clipPath id="clip0_654_2">
<rect width="48" height="48" fill="white"/>
</clipPath>
</defs>
</svg>
