<svg width="48" height="48" viewBox="0 0 48 48" fill="none" xmlns="http://www.w3.org/2000/svg">
<g clip-path="url(#clip0_422_202)">
<path d="M36.75 0H11.25C5.0368 0 0 5.0368 0 11.25V36.75C0 42.9632 5.0368 48 11.25 48H36.75C42.9632 48 48 42.9632 48 36.75V11.25C48 5.0368 42.9632 0 36.75 0Z" fill="#009639"/>
<path d="M36.6259 39.9373C36.1909 39.9377 35.7601 39.8522 35.3582 39.6858C34.9564 39.5195 34.5912 39.2754 34.2838 38.9677L14.6857 19.3698V36.626C14.6857 38.4551 13.2034 39.9373 11.3741 39.9373C9.546 39.9373 8.0625 38.4551 8.0625 36.626V11.375C8.0625 10.0344 8.87063 8.82784 10.1078 8.31541C10.7127 8.06416 11.3786 7.99824 12.021 8.12603C12.6635 8.25382 13.2535 8.56954 13.7162 9.03316L33.3142 28.631V11.375C33.3142 9.54578 34.7966 8.06378 36.6259 8.06378C38.4553 8.06378 39.9375 9.54578 39.9375 11.375V36.626C39.9375 37.965 39.1294 39.173 37.8923 39.6857C37.4908 39.852 37.0604 39.9375 36.6259 39.9373Z" fill="white"/>
</g>
<defs>
<clipPath id="clip0_422_202">
<rect width="48" height="48" fill="white"/>
</clipPath>
</defs>
</svg>
