<svg width="48" height="48" viewBox="0 0 48 48" fill="none" xmlns="http://www.w3.org/2000/svg">
<g clip-path="url(#clip0_422_179)">
<path d="M36.75 0H11.25C5.0368 0 0 5.0368 0 11.25V36.75C0 42.9632 5.0368 48 11.25 48H36.75C42.9632 48 48 42.9632 48 36.75V11.25C48 5.0368 42.9632 0 36.75 0Z" fill="#242938"/>
<path d="M23.8648 5.4375C14.3451 5.4375 14.9394 9.56588 14.9394 9.56588L14.9501 13.8428H24.0347V15.1271H11.3417C11.3417 15.1271 5.25 14.436 5.25 24.0414C5.25 33.6471 10.5669 33.3066 10.5669 33.3066H13.7402V28.8491C13.7402 28.8491 13.5692 23.5322 18.9724 23.5322H27.9825C27.9825 23.5322 33.0448 23.6139 33.0448 18.6396V10.4149C33.0448 10.4149 33.8134 5.4375 23.8648 5.4375ZM18.8556 8.31356C19.0703 8.31334 19.2829 8.35546 19.4813 8.43752C19.6797 8.51958 19.86 8.63997 20.0118 8.79178C20.1636 8.9436 20.284 9.12387 20.366 9.32226C20.4481 9.52066 20.4902 9.7333 20.49 9.948C20.4902 10.1627 20.4481 10.3753 20.366 10.5737C20.2839 10.7721 20.1635 10.9523 20.0117 11.1041C19.8599 11.2559 19.6796 11.3763 19.4813 11.4583C19.2829 11.5404 19.0702 11.5825 18.8556 11.5822C18.6409 11.5824 18.4283 11.5403 18.2299 11.4583C18.0316 11.3762 17.8513 11.2558 17.6995 11.104C17.5477 10.9522 17.4274 10.772 17.3453 10.5736C17.2633 10.3753 17.2211 10.1627 17.2213 9.948C17.2211 9.73332 17.2632 9.5207 17.3453 9.32231C17.4273 9.12392 17.5477 8.94366 17.6995 8.79185C17.8513 8.64004 18.0315 8.51965 18.2299 8.43758C18.4283 8.35551 18.6409 8.31337 18.8556 8.31356Z" fill="url(#paint0_linear_422_179)"/>
<path d="M24.1352 42.7421C33.655 42.7421 33.0606 38.614 33.0606 38.614L33.0499 34.3369H23.9654V33.0527H36.6584C36.6584 33.0527 42.75 33.7436 42.75 24.138C42.75 14.5324 37.4331 14.8731 37.4331 14.8731H34.2599V19.3305C34.2599 19.3305 34.4309 24.6475 29.0277 24.6475H20.0175C20.0175 24.6475 14.955 24.5655 14.955 29.5399V37.7648C14.955 37.7648 14.1865 42.7421 24.1352 42.7421ZM29.1445 39.8661C28.9298 39.8663 28.7172 39.8242 28.5188 39.7421C28.3204 39.6601 28.1401 39.5397 27.9883 39.3879C27.8365 39.2361 27.7161 39.0559 27.6341 38.8575C27.552 38.6591 27.5099 38.4465 27.51 38.2318C27.5098 38.0171 27.552 37.8045 27.634 37.6061C27.7161 37.4077 27.8365 37.2274 27.9883 37.0756C28.1401 36.9238 28.3204 36.8034 28.5188 36.7214C28.7171 36.6393 28.9298 36.5972 29.1445 36.5974C29.3592 36.5972 29.5718 36.6393 29.7702 36.7214C29.9686 36.8035 30.1488 36.9239 30.3006 37.0757C30.4525 37.2275 30.5728 37.4077 30.6549 37.6061C30.737 37.8045 30.7791 38.0171 30.7789 38.2318C30.7791 38.4465 30.7369 38.6591 30.6549 38.8575C30.5728 39.0558 30.4524 39.2361 30.3006 39.3879C30.1488 39.5397 29.9685 39.66 29.7701 39.7421C29.5718 39.8241 29.3592 39.8663 29.1445 39.8661Z" fill="url(#paint1_linear_422_179)"/>
</g>
<defs>
<linearGradient id="paint0_linear_422_179" x1="8.85375" y1="8.793" x2="27.4374" y2="27.1912" gradientUnits="userSpaceOnUse">
<stop stop-color="#387EB8"/>
<stop offset="1" stop-color="#366994"/>
</linearGradient>
<linearGradient id="paint1_linear_422_179" x1="20.2605" y1="20.6072" x2="40.2173" y2="39.4729" gradientUnits="userSpaceOnUse">
<stop stop-color="#FFE052"/>
<stop offset="1" stop-color="#FFC331"/>
</linearGradient>
<clipPath id="clip0_422_179">
<rect width="48" height="48" fill="white"/>
</clipPath>
</defs>
</svg>
