<svg width="48" height="48" viewBox="0 0 48 48" fill="none" xmlns="http://www.w3.org/2000/svg">
<g clip-path="url(#clip0_422_115)">
<path d="M36.75 0H11.25C5.0368 0 0 5.0368 0 11.25V36.75C0 42.9632 5.0368 48 11.25 48H36.75C42.9632 48 48 42.9632 48 36.75V11.25C48 5.0368 42.9632 0 36.75 0Z" fill="#E43717"/>
<path d="M42.4826 23.5408L40.9095 22.5662C40.8962 22.4128 40.8812 22.2598 40.8647 22.1076L42.2192 20.8463C42.2869 20.7835 42.3373 20.7044 42.3657 20.6165C42.394 20.5287 42.3994 20.435 42.3812 20.3445C42.3635 20.2539 42.3228 20.1695 42.263 20.0992C42.2032 20.0289 42.1263 19.9752 42.0398 19.9433L40.3088 19.2983C40.2654 19.1484 40.2199 18.9998 40.1734 18.8503L41.2521 17.3526C41.306 17.2778 41.34 17.1905 41.3506 17.0989C41.3613 17.0074 41.3483 16.9146 41.313 16.8294C41.2777 16.7444 41.2213 16.6697 41.1492 16.6124C41.0772 16.5551 40.9917 16.5171 40.9009 16.5019L39.0767 16.2051C39.0059 16.0677 38.9328 15.9315 38.8573 15.7967L39.6244 14.1126C39.6629 14.0284 39.6792 13.9358 39.6718 13.8436C39.6644 13.7514 39.6335 13.6626 39.582 13.5857C39.5309 13.5087 39.4609 13.4462 39.3787 13.4041C39.2965 13.362 39.2048 13.3418 39.1125 13.3453L37.2598 13.4098C37.1642 13.2902 37.0667 13.1717 36.9673 13.0551L37.3939 11.2526C37.4151 11.1625 37.413 11.0685 37.3877 10.9795C37.3624 10.8904 37.3147 10.8094 37.2492 10.7439C37.1838 10.6785 37.1026 10.6309 37.0136 10.6056C36.9245 10.5804 36.8305 10.5783 36.7404 10.5996L34.938 11.0259C34.8209 10.9267 34.7024 10.8292 34.5825 10.7334L34.6474 8.88094C34.6545 8.69344 34.563 8.51531 34.4068 8.41144C34.3299 8.36007 34.2411 8.32919 34.1489 8.32175C34.0567 8.3143 33.9641 8.33052 33.8799 8.36888L32.1992 9.13575C32.0634 9.06113 31.9273 8.98744 31.7908 8.916L31.4933 7.09219C31.4786 7.00117 31.4408 6.91544 31.3834 6.84327C31.326 6.77109 31.2511 6.71489 31.1657 6.68006C31.0806 6.64467 30.9878 6.63168 30.8962 6.64235C30.8046 6.65302 30.7173 6.68698 30.6426 6.741L29.1446 7.8195C28.9971 7.77261 28.8489 7.72761 28.7003 7.6845L28.0551 5.95388C28.023 5.86731 27.9692 5.7904 27.899 5.73047C27.8288 5.67054 27.7444 5.62958 27.6538 5.6115C27.5633 5.59377 27.4698 5.59933 27.382 5.62767C27.2942 5.65601 27.2151 5.70619 27.1521 5.7735L25.8906 7.128C25.7379 7.1109 25.585 7.09596 25.4319 7.08319L24.4571 5.5065C24.4083 5.42787 24.3402 5.36302 24.2593 5.31812C24.1784 5.27323 24.0873 5.24978 23.9948 5.25C23.8056 5.25 23.6329 5.34713 23.5361 5.5065L22.5613 7.08338C22.4079 7.09575 22.2546 7.11113 22.1027 7.128L20.8412 5.7735C20.7782 5.70614 20.699 5.65593 20.6113 5.62759C20.5235 5.59925 20.4299 5.59371 20.3394 5.6115C20.2488 5.6294 20.1643 5.67027 20.094 5.73018C20.0238 5.7901 19.97 5.86706 19.938 5.95369L19.293 7.68431C19.1432 7.72744 18.9949 7.773 18.8486 7.8195L17.3505 6.741C17.2758 6.6869 17.1885 6.65289 17.0969 6.64222C17.0053 6.63155 16.9125 6.64458 16.8274 6.68006C16.7423 6.71537 16.6677 6.77172 16.6104 6.84381C16.5532 6.9159 16.5152 7.00137 16.5 7.09219L16.2026 8.916C16.065 8.98725 15.9289 9.06075 15.7941 9.13575L14.1133 8.36888C14.0293 8.33053 13.9368 8.31429 13.8447 8.3217C13.7526 8.32911 13.6639 8.35992 13.5871 8.41121C13.5102 8.4625 13.4477 8.53257 13.4056 8.61477C13.3634 8.69698 13.3429 8.7886 13.3461 8.88094L13.4106 10.7334C13.2908 10.8294 13.1723 10.9269 13.0551 11.0259L11.2524 10.5996C11.1623 10.5785 11.0684 10.5807 10.9793 10.606C10.8903 10.6312 10.8092 10.6787 10.7436 10.7439C10.6104 10.8769 10.5561 11.0685 10.5992 11.2526L11.022 13.0551C10.9232 13.172 10.8259 13.2903 10.7303 13.4098L8.87775 13.3453C8.78551 13.3423 8.69403 13.3628 8.61187 13.4049C8.52972 13.4469 8.45959 13.5091 8.40806 13.5857C8.35664 13.6626 8.32574 13.7514 8.31829 13.8436C8.31084 13.9358 8.32709 14.0284 8.3655 14.1126L9.13238 15.7967C9.05775 15.9317 8.98406 16.068 8.91263 16.2051L7.08863 16.5019C6.99761 16.5166 6.9119 16.5544 6.83972 16.6118C6.76755 16.6691 6.71134 16.7441 6.6765 16.8294C6.64125 16.9146 6.62834 17.0074 6.63901 17.0989C6.64967 17.1905 6.68355 17.2778 6.73744 17.3526L7.81613 18.8503C7.76867 18.9989 7.72348 19.1483 7.68056 19.2983L5.94975 19.9433C5.86335 19.9755 5.78662 20.0293 5.72684 20.0995C5.66705 20.1697 5.62619 20.2541 5.60813 20.3445C5.59021 20.435 5.59569 20.5286 5.62404 20.6164C5.65239 20.7042 5.70267 20.7833 5.77013 20.8463L7.12481 22.1076C7.10794 22.2598 7.09294 22.4132 7.08 22.5662L5.50688 23.5408C5.42815 23.5895 5.3632 23.6575 5.31824 23.7384C5.27327 23.8194 5.24978 23.9104 5.25 24.003C5.25 24.1926 5.34713 24.3651 5.50669 24.4618L7.07981 25.4364C7.09275 25.5898 7.10794 25.7428 7.12463 25.8951L5.76994 27.1564C5.70253 27.2193 5.6523 27.2984 5.62401 27.3862C5.59573 27.4739 5.59033 27.5675 5.60832 27.6579C5.62631 27.7483 5.66709 27.8327 5.72681 27.9029C5.78653 27.9732 5.86321 28.027 5.94956 28.0594L7.68038 28.7044C7.7235 28.8542 7.76888 29.0029 7.81594 29.1523L6.73725 30.6501C6.68325 30.7251 6.64936 30.8126 6.63881 30.9044C6.62825 30.9962 6.64139 31.0892 6.67695 31.1745C6.71252 31.2598 6.76934 31.3346 6.842 31.3917C6.91465 31.4488 7.00072 31.4863 7.092 31.5008L8.91619 31.7974C8.98744 31.9358 9.06056 32.0719 9.13575 32.2059L8.36888 33.8865C8.33052 33.9706 8.31427 34.063 8.32167 34.1551C8.32908 34.2472 8.35989 34.3359 8.41119 34.4127C8.46248 34.4895 8.53256 34.552 8.61477 34.5942C8.69699 34.6363 8.78861 34.6568 8.88094 34.6536L10.7301 34.5889C10.826 34.7086 10.9235 34.827 11.0226 34.9442L10.5998 36.7466C10.5566 36.9294 10.611 37.1194 10.7441 37.2519C10.8095 37.3175 10.8907 37.3652 10.9798 37.3904C11.0689 37.4156 11.1629 37.4175 11.253 37.3959L13.0556 36.9731C13.1726 37.0722 13.2911 37.1695 13.4111 37.2649L13.3466 39.1174C13.3432 39.2096 13.3635 39.3012 13.4056 39.3834C13.4477 39.4656 13.5101 39.5356 13.587 39.5867C13.7426 39.6909 13.9419 39.7069 14.1139 39.6287L15.7946 38.8618C15.93 38.9372 16.0663 39.0101 16.2032 39.0816L16.5006 40.9054C16.5306 41.091 16.6547 41.2479 16.8281 41.3211C17.0012 41.3931 17.2009 41.3698 17.3513 41.2605L18.8494 40.182C18.9973 40.2289 19.146 40.2748 19.2973 40.3178L19.9423 42.0484C19.9745 42.1349 20.0282 42.2117 20.0985 42.2715C20.1688 42.3313 20.2532 42.3721 20.3438 42.39C20.4343 42.4081 20.5279 42.4028 20.6157 42.3744C20.7036 42.346 20.7827 42.2956 20.8455 42.228L22.107 40.8735C22.2593 40.8911 22.4126 40.9058 22.5656 40.9194L23.5404 42.4924C23.5888 42.5706 23.6563 42.6352 23.7365 42.6801C23.8167 42.725 23.9071 42.7488 23.9991 42.7491C24.1851 42.7491 24.3611 42.6516 24.4614 42.4924L25.4363 40.9194C25.5893 40.9061 25.7422 40.8908 25.8949 40.8735L27.1564 42.228C27.2191 42.2957 27.2982 42.3461 27.3861 42.3745C27.474 42.4029 27.5676 42.4082 27.6581 42.39C27.7487 42.3722 27.8332 42.3315 27.9034 42.2717C27.9737 42.2118 28.0274 42.1349 28.0594 42.0484L28.7046 40.3178C28.8542 40.2748 29.0031 40.2289 29.1525 40.182L30.6504 41.2605C30.7254 41.3146 30.8131 41.3485 30.9049 41.3591C30.9968 41.3696 31.0898 41.3565 31.1751 41.3208C31.2604 41.2852 31.3352 41.2283 31.3923 41.1556C31.4493 41.0829 31.4868 40.9967 31.5011 40.9054L31.7987 39.0816C31.9363 39.0101 32.0724 38.9361 32.2073 38.8618L33.888 39.6287C33.972 39.6672 34.0644 39.6836 34.1566 39.6764C34.2487 39.6691 34.3374 39.6384 34.4143 39.5871C34.4912 39.5359 34.5537 39.4658 34.5959 39.3836C34.638 39.3014 34.6585 39.2097 34.6553 39.1174L34.5908 37.2649C34.7106 37.1694 34.829 37.0722 34.9459 36.9731L36.7483 37.3959C36.8384 37.4174 36.9325 37.4154 37.0216 37.3902C37.1107 37.365 37.1919 37.3174 37.2574 37.2519C37.3226 37.1871 37.3702 37.1066 37.3954 37.0181C37.4207 36.9296 37.4229 36.8362 37.4018 36.7466L36.9788 34.9442C37.0779 34.8273 37.1752 34.7089 37.2705 34.5889L39.1234 34.6536C39.2157 34.6571 39.3073 34.6368 39.3895 34.5948C39.4717 34.5527 39.5416 34.4901 39.5927 34.4132C39.6443 34.3364 39.6753 34.2476 39.6827 34.1554C39.6901 34.0632 39.6737 33.9706 39.6351 33.8865L38.8682 32.2059C38.943 32.0702 39.0165 31.9339 39.0876 31.7974L40.9116 31.5008C41.0027 31.4863 41.0885 31.4485 41.1607 31.3911C41.2329 31.3337 41.289 31.2587 41.3237 31.1732C41.3591 31.0881 41.3721 30.9953 41.3614 30.9037C41.3507 30.8121 41.3168 30.7248 41.2628 30.6501L40.1841 29.1523C40.2308 29.0042 40.2761 28.8555 40.3196 28.7044L42.0504 28.0594C42.1369 28.0272 42.2138 27.9735 42.2736 27.9032C42.3334 27.8329 42.3742 27.7485 42.3921 27.6579C42.4102 27.5675 42.4048 27.4739 42.3764 27.386C42.3481 27.2982 42.2977 27.2192 42.2301 27.1564L40.8754 25.8951C40.8919 25.7428 40.9069 25.5894 40.9202 25.4364L42.4935 24.4618C42.5718 24.4135 42.6364 24.346 42.6813 24.2657C42.7262 24.1854 42.7498 24.095 42.75 24.003C42.75 23.8172 42.6533 23.6411 42.4937 23.5408H42.4826ZM31.9466 36.6199C31.3446 36.4901 30.9647 35.8959 31.0937 35.2941C31.1242 35.1509 31.1826 35.0152 31.2656 34.8947C31.3486 34.7742 31.4545 34.6712 31.5774 34.5917C31.7002 34.5121 31.8375 34.4576 31.9814 34.4311C32.1253 34.4047 32.2731 34.4069 32.4161 34.4376C33.0182 34.5662 33.4016 35.1613 33.2726 35.7634C33.2421 35.9065 33.1837 36.0422 33.1007 36.1627C33.0177 36.2832 32.9117 36.3862 32.7889 36.4657C32.6661 36.5452 32.5288 36.5998 32.3849 36.6263C32.241 36.6527 32.0933 36.6505 31.9502 36.6199H31.9466ZM31.4126 33.0008C30.8644 32.8832 30.3233 33.2321 30.2085 33.7819L29.6496 36.3904C27.9257 37.1717 25.9941 37.6088 23.9873 37.6088C21.9231 37.6088 19.9736 37.1537 18.2175 36.3368L17.6586 33.7281C17.541 33.1798 17.0027 32.8286 16.4544 32.9469L14.1501 33.4414C13.7229 33 13.3254 32.5308 12.9602 32.0368H24.1772C24.3041 32.0368 24.3887 32.0139 24.3887 31.8984V27.921C24.3887 27.8057 24.3041 27.7828 24.1772 27.7828H20.8982V25.2709H24.4423C24.7659 25.2709 26.1733 25.3633 26.6213 27.1628C26.7621 27.7146 27.0728 29.5134 27.2843 30.0904C27.495 30.7354 28.3523 32.0254 29.2661 32.0254H34.8566C34.92 32.0254 34.9877 32.0181 35.0591 32.0053C34.6714 32.5311 34.2475 33.0292 33.7905 33.4959L31.4323 32.9906L31.4126 33.0008ZM15.8953 36.5661C15.7522 36.5969 15.6045 36.5992 15.4605 36.5728C15.3165 36.5464 15.1792 36.4918 15.0563 36.4123C14.9335 36.3327 14.8275 36.2297 14.7446 36.1091C14.6616 35.9885 14.6033 35.8527 14.5729 35.7096C14.4443 35.1077 14.8268 34.5128 15.4294 34.3838C15.7183 34.322 16.02 34.3775 16.268 34.5381C16.516 34.6987 16.69 34.9513 16.7518 35.2403C16.8804 35.8423 16.4978 36.4371 15.8953 36.5661ZM11.6308 19.3305C11.7505 19.6009 11.7581 19.9078 11.652 20.1838C11.5458 20.4598 11.3346 20.6825 11.0646 20.8031C10.7946 20.9229 10.4882 20.9305 10.2126 20.8244C9.93706 20.7182 9.71494 20.507 9.59513 20.2371C9.34444 19.6751 9.59944 19.0151 10.1614 18.7643C10.4313 18.6446 10.7378 18.637 11.0133 18.7432C11.2889 18.8494 11.511 19.0606 11.6308 19.3305ZM10.3226 22.4265L12.7238 21.3587C13.2362 21.1311 13.4693 20.5309 13.2398 20.0184L12.7453 18.9006H14.6876V27.6437H10.7814C10.4337 26.4198 10.2577 25.1536 10.2583 23.8813C10.2583 23.3893 10.2845 22.8977 10.3367 22.4085L10.3226 22.4265ZM20.8588 21.5771V18.9973H25.4816C25.7207 18.9973 27.1695 19.2735 27.1695 20.3554C27.1695 21.2546 26.0586 21.5771 25.1449 21.5771H20.8444H20.8588ZM37.6661 23.8991C37.6661 24.2417 37.6536 24.5799 37.6286 24.9169H36.2201C36.0793 24.9169 36.0227 25.0093 36.0227 25.1471V25.7921C36.0227 27.3114 35.1662 27.6448 34.4136 27.7271C33.6969 27.8078 32.9049 27.4277 32.8082 26.9889C32.3852 24.6133 31.6828 24.108 30.5719 23.2266C31.9517 22.3523 33.3851 21.0587 33.3851 19.3208C33.3851 17.454 32.1058 16.2786 31.2349 15.7016C30.0094 14.8954 28.6547 14.7341 28.2891 14.7341H13.7394C15.7138 12.5342 18.3983 10.9718 21.4084 10.3984L23.1251 12.1973C23.2172 12.2939 23.3275 12.3714 23.4496 12.4254C23.5717 12.4794 23.7033 12.5087 23.8368 12.5118C23.9703 12.5149 24.103 12.4916 24.2275 12.4433C24.352 12.395 24.4657 12.3226 24.5621 12.2303L26.4829 10.3956C30.4967 11.1444 33.9011 13.6457 35.8721 17.0963L34.557 20.0633C34.3301 20.5757 34.5617 21.1778 35.073 21.4035L37.6031 22.5285C37.6468 22.9764 37.6697 23.4315 37.6697 23.8901L37.6661 23.8991ZM23.1165 8.88525C23.222 8.78408 23.3465 8.70474 23.4828 8.65179C23.619 8.59883 23.7644 8.57331 23.9106 8.57667C24.0567 8.58003 24.2008 8.61222 24.3345 8.67138C24.4682 8.73055 24.5889 8.81552 24.6896 8.92144C24.8933 9.13568 25.0037 9.4219 24.9968 9.71741C24.9899 10.0129 24.8662 10.2937 24.6527 10.4981C24.5472 10.5993 24.4227 10.6787 24.2864 10.7316C24.1501 10.7846 24.0047 10.8101 23.8585 10.8067C23.7124 10.8033 23.5683 10.771 23.4346 10.7118C23.3009 10.6526 23.1803 10.5675 23.0796 10.4616C22.876 10.2473 22.7655 9.96109 22.7724 9.66559C22.7794 9.37009 22.9031 9.08937 23.1165 8.88488V8.88525ZM36.1611 19.3843C36.2201 19.2505 36.305 19.1296 36.4109 19.0287C36.5168 18.9277 36.6416 18.8487 36.7781 18.7961C36.9146 18.7435 37.0602 18.7183 37.2064 18.7221C37.3526 18.7259 37.4967 18.7585 37.6303 18.8181C37.7642 18.8776 37.8851 18.9629 37.986 19.0691C38.087 19.1753 38.166 19.3004 38.2186 19.4371C38.2712 19.5739 38.2963 19.7197 38.2925 19.8662C38.2887 20.0127 38.2561 20.157 38.1966 20.2909C38.1375 20.4247 38.0525 20.5455 37.9466 20.6464C37.8407 20.7473 37.716 20.8263 37.5795 20.8789C37.443 20.9315 37.2974 20.9566 37.1512 20.9529C37.005 20.9491 36.8609 20.9165 36.7273 20.8569C36.5934 20.7975 36.4725 20.7122 36.3716 20.606C36.2707 20.4998 36.1916 20.3747 36.1391 20.238C36.0865 20.1012 36.0613 19.9554 36.0651 19.8089C36.0689 19.6625 36.1015 19.5182 36.1611 19.3843Z" fill="white"/>
</g>
<defs>
<clipPath id="clip0_422_115">
<rect width="48" height="48" fill="white"/>
</clipPath>
</defs>
</svg>
