<svg width="64" height="64" viewBox="0 0 64 64" fill="none" xmlns="http://www.w3.org/2000/svg">
<rect width="64" height="64" fill="white"/>
<rect x="8" y="16" width="48" height="32" rx="4" fill="#8B8FB6"/>
<path d="M12 24H28" stroke="white" stroke-width="1.5"/>
<path d="M12 28H28" stroke="white" stroke-width="1.5"/>
<path d="M12 32H28" stroke="white" stroke-width="1.5"/>
<path d="M12 36H28" stroke="white" stroke-width="1.5"/>
<path d="M12 40H28" stroke="white" stroke-width="1.5"/>
<rect x="32" y="22" width="20" height="20" rx="10" fill="#686D94"/>
<path d="M50.3109 38.4062C49.2398 36.5262 47.5672 35.0614 45.5624 34.2476C46.5594 33.4999 47.2958 32.4574 47.6674 31.2679C48.0389 30.0784 48.0268 28.8022 47.6328 27.62C47.2387 26.4377 46.4826 25.4095 45.4717 24.6808C44.4607 23.9522 43.2461 23.5601 41.9999 23.5601C40.7538 23.5601 39.5392 23.9522 38.5282 24.6808C37.5173 25.4095 36.7612 26.4377 36.3671 27.62C35.9731 28.8022 35.9609 30.0784 36.3325 31.2679C36.7041 32.4574 37.4405 33.4999 38.4374 34.2476C36.4327 35.0614 34.7601 36.5262 33.689 38.4062C33.6226 38.5129 33.5784 38.6319 33.5589 38.756C33.5395 38.8802 33.5451 39.007 33.5757 39.1289C33.6062 39.2508 33.6609 39.3653 33.7366 39.4657C33.8122 39.566 33.9073 39.6501 34.0161 39.713C34.1249 39.7759 34.2453 39.8162 34.37 39.8317C34.4947 39.8471 34.6213 39.8373 34.7421 39.8028C34.863 39.7684 34.9757 39.71 35.0735 39.6311C35.1714 39.5522 35.2524 39.4545 35.3117 39.3437C36.7273 36.8968 39.2273 35.4374 41.9999 35.4374C44.7726 35.4374 47.2726 36.8976 48.6882 39.3437C48.8168 39.5503 49.0206 39.6989 49.2567 39.758C49.4928 39.8171 49.7426 39.7821 49.9533 39.6603C50.1641 39.5386 50.3192 39.3396 50.3859 39.1056C50.4526 38.8715 50.4257 38.6207 50.3109 38.4062ZM37.9374 29.4999C37.9374 28.6964 38.1757 27.911 38.6221 27.2429C39.0685 26.5748 39.703 26.0541 40.4453 25.7466C41.1876 25.4392 42.0045 25.3587 42.7925 25.5155C43.5805 25.6722 44.3044 26.0591 44.8726 26.6273C45.4407 27.1954 45.8276 27.9193 45.9844 28.7073C46.1411 29.4954 46.0607 30.3122 45.7532 31.0546C45.4457 31.7969 44.925 32.4314 44.2569 32.8777C43.5889 33.3241 42.8034 33.5624 41.9999 33.5624C40.9229 33.5612 39.8903 33.1328 39.1287 32.3712C38.3671 31.6096 37.9387 30.577 37.9374 29.4999Z" fill="white"/>
</svg>
