<svg width="95" height="95" viewBox="0 0 95 95" fill="none" xmlns="http://www.w3.org/2000/svg">
<path opacity="0.5" d="M0 24C0 10.7452 10.7452 0 24 0H71C84.2548 0 95 10.7452 95 24V71C95 84.2548 84.2548 95 71 95H24C10.7452 95 0 84.2548 0 71V24Z" fill="white"/>
<g filter="url(#filter0_f_308_5)">
<circle cx="49" cy="48" r="29" fill="#7DB3A8"/>
</g>
<path d="M13.184 58V40.24H16.736V47.944H16.784L22.688 40.24H26.6L21.152 47.224L27.536 58H23.672L19.064 50.032L16.736 53.008V58H13.184ZM77.6032 58.336C75.8032 58.336 73.8112 57.568 72.4912 56.464L74.0752 54.232C75.2992 55.168 76.4272 55.72 77.6752 55.72C79.0192 55.72 79.6432 55.12 79.6432 54.28C79.6432 53.296 78.2272 52.816 76.8352 52.288C75.1312 51.616 73.2352 50.608 73.2352 48.328C73.2352 45.952 75.1552 44.248 78.2272 44.248C80.1712 44.248 81.7072 45.04 82.8112 45.904L81.2032 48.016C80.2672 47.344 79.3072 46.864 78.3232 46.864C77.0992 46.864 76.5472 47.392 76.5472 48.184C76.5472 49.144 77.7712 49.528 79.2112 50.032C80.9872 50.704 82.9312 51.616 82.9312 54.088C82.9312 56.464 81.0832 58.336 77.6032 58.336Z" fill="#606060"/>
<path d="M32.6371 58.336C30.2371 58.336 28.6771 56.656 28.6771 54.352C28.6771 51.496 31.0051 49.984 36.4051 49.384C36.3331 48.064 35.7811 47.08 34.1251 47.08C32.8771 47.08 31.6531 47.608 30.4291 48.352L29.1571 46C30.7411 45.04 32.6371 44.248 34.7731 44.248C38.1811 44.248 39.9331 46.264 39.9331 50.176V58H37.0531L36.7891 56.584H36.6931C35.5171 57.592 34.1731 58.336 32.6371 58.336ZM33.7891 55.576C34.7971 55.576 35.5411 55.12 36.4051 54.28V51.568C33.1171 51.976 32.0371 52.864 32.0371 54.088C32.0371 55.12 32.7571 55.576 33.7891 55.576ZM50.2488 58.336C49.0488 58.336 47.7528 57.712 46.6728 56.584H46.5768L46.2888 58H43.5288V38.872H47.0568V43.696L46.9368 45.832C48.0168 44.896 49.3368 44.248 50.6808 44.248C53.9688 44.248 55.9608 46.936 55.9608 51.064C55.9608 55.696 53.2008 58.336 50.2488 58.336ZM49.4808 55.432C51.0888 55.432 52.3368 54.04 52.3368 51.136C52.3368 48.544 51.5448 47.128 49.6728 47.128C48.7848 47.128 47.9448 47.584 47.0568 48.52V54.448C47.8728 55.192 48.7608 55.432 49.4808 55.432ZM64.5901 58.336C61.2061 58.336 58.1341 55.744 58.1341 51.304C58.1341 46.84 61.2061 44.248 64.5901 44.248C67.9501 44.248 71.0221 46.84 71.0221 51.304C71.0221 55.744 67.9501 58.336 64.5901 58.336ZM64.5901 55.48C66.4141 55.48 67.4221 53.824 67.4221 51.304C67.4221 48.76 66.4141 47.128 64.5901 47.128C62.7421 47.128 61.7341 48.76 61.7341 51.304C61.7341 53.824 62.7421 55.48 64.5901 55.48Z" fill="#F0F0F0"/>
<defs>
<filter id="filter0_f_308_5" x="16" y="15" width="66" height="66" filterUnits="userSpaceOnUse" color-interpolation-filters="sRGB">
<feFlood flood-opacity="0" result="BackgroundImageFix"/>
<feBlend mode="normal" in="SourceGraphic" in2="BackgroundImageFix" result="shape"/>
<feGaussianBlur stdDeviation="2" result="effect1_foregroundBlur_308_5"/>
</filter>
</defs>
</svg>
