<svg width="340" height="256" viewBox="0 0 340 256" fill="none" xmlns="http://www.w3.org/2000/svg">
<rect width="340" height="256" fill="white"/>
<path d="M99.1776 142V118.32H103.978L110.858 130.96L113.258 136.08H113.418C113.162 133.616 112.778 130.448 112.778 127.76V118.32H117.29V142H112.458L105.61 129.328L103.21 124.272H103.05C103.274 126.8 103.658 129.776 103.658 132.528V142H99.1776ZM130.25 142.448C125.738 142.448 121.642 138.992 121.642 133.072C121.642 127.12 125.738 123.664 130.25 123.664C134.73 123.664 138.826 127.12 138.826 133.072C138.826 138.992 134.73 142.448 130.25 142.448ZM130.25 138.64C132.682 138.64 134.026 136.432 134.026 133.072C134.026 129.68 132.682 127.504 130.25 127.504C127.786 127.504 126.442 129.68 126.442 133.072C126.442 136.432 127.786 138.64 130.25 138.64ZM150.428 142V118.32H155.164V142H150.428ZM160.606 142V124.112H164.414L164.798 126.48H164.894C166.398 124.944 168.062 123.664 170.366 123.664C172.958 123.664 174.462 124.784 175.294 126.768C176.958 125.072 178.686 123.664 181.022 123.664C184.83 123.664 186.558 126.352 186.558 130.832V142H181.854V131.44C181.854 128.624 181.086 127.696 179.358 127.696C178.334 127.696 177.214 128.336 175.934 129.68V142H171.23V131.44C171.23 128.624 170.43 127.696 168.702 127.696C167.71 127.696 166.526 128.336 165.31 129.68V142H160.606ZM195.834 142.448C192.634 142.448 190.554 140.208 190.554 137.136C190.554 133.328 193.658 131.312 200.858 130.512C200.762 128.752 200.026 127.44 197.818 127.44C196.154 127.44 194.522 128.144 192.89 129.136L191.194 126C193.306 124.72 195.834 123.664 198.682 123.664C203.226 123.664 205.562 126.352 205.562 131.568V142H201.722L201.37 140.112H201.242C199.674 141.456 197.882 142.448 195.834 142.448ZM197.37 138.768C198.714 138.768 199.706 138.16 200.858 137.04V133.424C196.474 133.968 195.034 135.152 195.034 136.784C195.034 138.16 195.994 138.768 197.37 138.768ZM216.628 149.776C212.436 149.776 209.172 148.336 209.172 145.2C209.172 143.696 210.068 142.384 211.732 141.488V141.328C210.804 140.72 210.1 139.76 210.1 138.288C210.1 136.944 210.996 135.728 212.116 134.96V134.832C210.868 133.936 209.684 132.24 209.684 130.128C209.684 125.904 213.14 123.664 216.916 123.664C217.94 123.664 218.9 123.824 219.636 124.112H226.1V127.568H223.028C223.508 128.176 223.86 129.168 223.86 130.256C223.86 134.32 220.788 136.336 216.916 136.336C216.212 136.336 215.412 136.208 214.612 135.92C214.132 136.368 213.844 136.752 213.844 137.488C213.844 138.416 214.58 138.96 216.66 138.96H219.732C224.052 138.96 226.42 140.272 226.42 143.44C226.42 147.056 222.612 149.776 216.628 149.776ZM216.916 133.456C218.484 133.456 219.732 132.24 219.732 130.128C219.732 128.016 218.516 126.864 216.916 126.864C215.348 126.864 214.1 128.016 214.1 130.128C214.1 132.24 215.348 133.456 216.916 133.456ZM217.364 146.8C220.052 146.8 221.876 145.616 221.876 144.24C221.876 142.96 220.82 142.608 218.9 142.608H216.724C215.636 142.608 214.9 142.544 214.26 142.352C213.428 143.024 213.076 143.728 213.076 144.464C213.076 145.968 214.74 146.8 217.364 146.8ZM236.477 142.448C231.453 142.448 227.549 138.992 227.549 133.072C227.549 127.248 231.645 123.664 235.869 123.664C240.829 123.664 243.357 127.248 243.357 132.208C243.357 133.104 243.261 133.936 243.165 134.384H232.093C232.509 137.328 234.429 138.832 237.085 138.832C238.525 138.832 239.805 138.384 241.117 137.584L242.685 140.496C240.925 141.712 238.685 142.448 236.477 142.448ZM232.029 131.248H239.357C239.357 128.816 238.269 127.28 235.965 127.28C234.077 127.28 232.413 128.624 232.029 131.248Z" fill="#57867A"/>
</svg>
