<svg width="248" height="160" viewBox="0 0 248 160" fill="none" xmlns="http://www.w3.org/2000/svg">
<rect width="248" height="160" fill="white"/>
<path d="M52.912 94V70.32H57.712L64.592 82.96L66.992 88.08H67.152C66.896 85.616 66.512 82.448 66.512 79.76V70.32H71.024V94H66.192L59.344 81.328L56.944 76.272H56.784C57.008 78.8 57.392 81.776 57.392 84.528V94H52.912ZM83.9848 94.448C79.4728 94.448 75.3768 90.992 75.3768 85.072C75.3768 79.12 79.4728 75.664 83.9848 75.664C88.4648 75.664 92.5608 79.12 92.5608 85.072C92.5608 90.992 88.4648 94.448 83.9848 94.448ZM83.9848 90.64C86.4168 90.64 87.7608 88.432 87.7608 85.072C87.7608 81.68 86.4168 79.504 83.9848 79.504C81.5208 79.504 80.1768 81.68 80.1768 85.072C80.1768 88.432 81.5208 90.64 83.9848 90.64ZM104.162 94V70.32H108.898V94H104.162ZM114.341 94V76.112H118.149L118.533 78.48H118.629C120.133 76.944 121.797 75.664 124.101 75.664C126.693 75.664 128.197 76.784 129.029 78.768C130.693 77.072 132.421 75.664 134.757 75.664C138.565 75.664 140.293 78.352 140.293 82.832V94H135.589V83.44C135.589 80.624 134.821 79.696 133.093 79.696C132.069 79.696 130.949 80.336 129.669 81.68V94H124.965V83.44C124.965 80.624 124.165 79.696 122.437 79.696C121.445 79.696 120.26 80.336 119.045 81.68V94H114.341ZM149.568 94.448C146.368 94.448 144.288 92.208 144.288 89.136C144.288 85.328 147.392 83.312 154.592 82.512C154.496 80.752 153.76 79.44 151.552 79.44C149.888 79.44 148.256 80.144 146.624 81.136L144.928 78C147.04 76.72 149.568 75.664 152.416 75.664C156.96 75.664 159.296 78.352 159.296 83.568V94H155.456L155.104 92.112H154.976C153.408 93.456 151.616 94.448 149.568 94.448ZM151.104 90.768C152.448 90.768 153.44 90.16 154.592 89.04V85.424C150.208 85.968 148.768 87.152 148.768 88.784C148.768 90.16 149.728 90.768 151.104 90.768ZM170.363 101.776C166.171 101.776 162.907 100.336 162.907 97.2C162.907 95.696 163.803 94.384 165.467 93.488V93.328C164.539 92.72 163.835 91.76 163.835 90.288C163.835 88.944 164.731 87.728 165.851 86.96V86.832C164.603 85.936 163.419 84.24 163.419 82.128C163.419 77.904 166.875 75.664 170.651 75.664C171.675 75.664 172.635 75.824 173.371 76.112H179.835V79.568H176.763C177.243 80.176 177.595 81.168 177.595 82.256C177.595 86.32 174.523 88.336 170.651 88.336C169.947 88.336 169.147 88.208 168.347 87.92C167.867 88.368 167.579 88.752 167.579 89.488C167.579 90.416 168.315 90.96 170.395 90.96H173.467C177.787 90.96 180.155 92.272 180.155 95.44C180.155 99.056 176.347 101.776 170.363 101.776ZM170.651 85.456C172.219 85.456 173.467 84.24 173.467 82.128C173.467 80.016 172.251 78.864 170.651 78.864C169.083 78.864 167.835 80.016 167.835 82.128C167.835 84.24 169.083 85.456 170.651 85.456ZM171.099 98.8C173.787 98.8 175.611 97.616 175.611 96.24C175.611 94.96 174.555 94.608 172.635 94.608H170.459C169.371 94.608 168.635 94.544 167.995 94.352C167.163 95.024 166.811 95.728 166.811 96.464C166.811 97.968 168.475 98.8 171.099 98.8ZM190.211 94.448C185.187 94.448 181.283 90.992 181.283 85.072C181.283 79.248 185.379 75.664 189.603 75.664C194.563 75.664 197.091 79.248 197.091 84.208C197.091 85.104 196.995 85.936 196.899 86.384H185.827C186.243 89.328 188.163 90.832 190.819 90.832C192.259 90.832 193.539 90.384 194.851 89.584L196.419 92.496C194.659 93.712 192.419 94.448 190.211 94.448ZM185.763 83.248H193.091C193.091 80.816 192.003 79.28 189.699 79.28C187.811 79.28 186.147 80.624 185.763 83.248Z" fill="#57867A"/>
</svg>
